# xmcd CD database file
#
# Track frame offsets:
#	150
#	15593
#	46601
#	63775
#
# Disc length: 1268 seconds
#
# Revision: 0
# Processed by: cddbd v1.5.1PL2 Copyright (c) Steve Scherf et al.
# Submitted via: CDex 1.51
#
DISCID=2104f204
DTITLE=DYCE - Stand Alone
DYEAR=2005
DGENRE=Trance
TTITLE0=Stand Alone - Club Radio
TTITLE1=Stand Alone - Original Extended
TTITLE2=Stand Alone - Original Radio
TTITLE3=Stand Alone - Extended Club Remix
EXTD=YEAR: 2005
EXTT0=
EXTT1=
EXTT2=
EXTT3=
PLAYORDER=
